<?xml version="1.0" standalone="no"?>
<!DOCTYPE svg PUBLIC "-//W3C//DTD SVG 20010904//EN"
 "http://www.w3.org/TR/2001/REC-SVG-20010904/DTD/svg10.dtd">
<svg version="1.0" xmlns="http://www.w3.org/2000/svg"
 width="96.000000pt" height="96.000000pt" viewBox="0 0 96.000000 96.000000"
 preserveAspectRatio="xMidYMid meet">
<metadata>
Created by potrace 1.14, written by Peter Selinger 2001-2017
</metadata>
<g transform="translate(0.000000,96.000000) scale(0.100000,-0.100000)"
fill="#000000" stroke="none">
<path d="M200 785 c-30 -30 -56 -51 -60 -47 -3 4 -13 13 -23 21 -15 12 -20 11
-37 -4 -11 -10 -20 -22 -20 -27 0 -10 77 -88 88 -88 4 0 43 35 86 79 l78 78
-23 22 c-12 11 -25 21 -29 21 -3 0 -30 -25 -60 -55z"/>
<path d="M384 746 c-3 -8 -4 -25 -2 -38 l3 -23 245 0 245 0 0 35 0 35 -243 3
c-204 2 -243 0 -248 -12z"/>
<path d="M200 545 c-30 -30 -56 -51 -60 -47 -3 4 -13 13 -23 21 -15 12 -20 11
-37 -4 -11 -10 -20 -22 -20 -27 0 -10 77 -88 88 -88 4 0 43 35 86 79 l78 78
-23 22 c-12 11 -25 21 -29 21 -3 0 -30 -25 -60 -55z"/>
<path d="M384 506 c-3 -8 -4 -25 -2 -38 l3 -23 245 0 245 0 0 35 0 35 -243 3
c-204 2 -243 0 -248 -12z"/>
<path d="M200 305 c-30 -30 -56 -51 -60 -47 -3 4 -13 13 -23 21 -15 12 -20 11
-37 -4 -11 -10 -20 -22 -20 -27 0 -10 77 -88 88 -88 13 0 152 145 152 159 0
13 -27 40 -40 41 -3 0 -30 -25 -60 -55z"/>
<path d="M384 266 c-3 -8 -4 -25 -2 -38 l3 -23 245 0 245 0 0 35 0 35 -243 3
c-204 2 -243 0 -248 -12z"/>
</g>
</svg>
